<svg width="1280" height="832" viewBox="0 0 1280 832" fill="none" xmlns="http://www.w3.org/2000/svg">
<g opacity="0.2" clip-path="url(#clip0_237_195)">
<path d="M0 63.7867C50.0262 69.9254 100.054 76.0656 151.04 69.3333C202.026 62.6011 253.972 42.9978 307.2 45.76C360.428 48.5222 414.938 73.6514 474.88 74.88C534.822 76.1086 600.198 53.4366 650.24 49.92C700.282 46.4034 734.99 62.0436 788.48 65.1733C841.97 68.303 914.24 58.9222 970.24 56.8533C1026.24 54.7844 1065.96 60.026 1114.88 62.4C1163.8 64.774 1221.9 64.2803 1331.2 63.7867" stroke="#A07E88" stroke-linecap="round"/>
<path d="M0 127.573C56.224 119.546 112.448 111.518 163.84 110.933C215.232 110.348 261.792 117.204 316.16 119.253C370.528 121.303 432.703 118.546 482.56 117.867C532.417 117.187 569.958 118.585 624.64 123.413C679.322 128.242 751.145 136.502 814.08 131.733C877.015 126.965 931.06 109.169 979.2 110.933C1027.34 112.697 1069.57 134.021 1118.72 140.053C1167.87 146.085 1223.93 136.829 1331.2 127.573" stroke="#A98992" stroke-linecap="round"/>
<path d="M0 191.36C48.1677 194.958 96.3354 198.557 145.92 201.067C195.505 203.577 246.505 204.999 305.92 206.613C365.335 208.227 433.165 210.031 488.96 206.613C544.755 203.195 588.518 194.555 638.72 188.587C688.922 182.618 745.563 179.324 803.84 184.427C862.117 189.53 922.029 203.027 971.52 205.227C1021.01 207.426 1060.08 198.328 1109.76 194.133C1159.44 189.939 1219.72 190.65 1331.2 191.36" stroke="#E3D9DC" stroke-linecap="round"/>
<path d="M0 255.147C56.393 256.255 112.787 257.361 166.4 259.307C220.013 261.252 270.847 264.035 320 263.467C369.153 262.898 416.627 258.979 473.6 256.533C530.573 254.087 597.043 253.117 651.52 256.533C705.997 259.95 748.477 267.757 793.6 264.853C838.723 261.95 886.487 248.338 942.08 246.827C997.673 245.315 1061.09 255.904 1118.72 259.307C1176.35 262.71 1228.17 258.928 1331.2 255.147" stroke="#B99FA7" stroke-linecap="round"/>
<path d="M0 318.933C42.2323 325.189 84.4646 331.444 142.08 334.187C199.695 336.93 272.691 336.16 325.12 334.187C377.549 332.213 409.405 329.038 458.24 330.027C507.075 331.015 572.883 336.168 629.76 336.96C686.637 337.752 734.579 334.185 789.76 328.64C844.941 323.095 907.361 315.573 960 314.773C1012.64 313.973 1055.5 319.893 1107.2 321.707C1158.9 323.52 1219.45 321.227 1331.2 318.933" stroke="#8C626E" stroke-linecap="round"/>
<path d="M0 382.72C50.537 389.42 101.074 396.121 154.88 396.587C208.686 397.053 265.763 391.283 322.56 389.653C379.357 388.024 435.876 390.534 487.68 389.653C539.484 388.773 586.575 384.503 633.6 381.333C680.625 378.163 727.584 376.094 778.24 378.56C828.896 381.025 883.251 388.024 940.8 385.493C998.349 382.963 1059.09 370.904 1116.16 368.853C1173.23 366.802 1226.61 374.761 1331.2 382.72" stroke="#8E6571" stroke-linecap="round"/>
<path d="M0 447.893C61.4272 444.263 122.853 440.633 171.52 442.347C220.187 444.061 256.095 451.119 311.04 449.28C365.985 447.441 439.967 436.706 500.48 439.573C560.993 442.441 608.038 458.912 651.52 461.76C695.002 464.608 734.921 453.831 787.2 446.507C839.479 439.182 904.118 435.308 961.28 440.96C1018.44 446.612 1068.13 461.791 1120 464.533C1171.87 467.276 1225.94 457.586 1331.2 447.893" stroke="#875C68" stroke-linecap="round"/>
<path d="M0 511.68C64.3226 508.74 128.645 505.799 177.92 501.973C227.195 498.148 261.423 493.437 308.48 493.653C355.537 493.87 415.424 499.013 468.48 504.747C521.536 510.481 567.763 516.805 620.8 515.84C673.837 514.875 733.682 506.619 789.76 501.973C845.838 497.328 898.15 496.296 956.16 496.427C1014.17 496.557 1077.88 497.851 1132.8 500.587C1187.72 503.323 1233.86 507.502 1331.2 511.68" stroke="#97717C" stroke-linecap="round"/>
<path d="M0 575.467C43.721 577.369 87.4406 579.27 139.52 575.467C191.599 571.663 252.037 562.155 309.76 567.147C367.483 572.139 422.49 591.635 476.16 590.72C529.83 589.805 582.163 568.483 629.76 567.147C677.357 565.81 720.215 584.458 778.24 583.787C836.265 583.116 909.455 563.125 971.52 560.213C1033.58 557.301 1084.52 571.465 1134.08 576.853C1183.64 582.242 1231.82 578.854 1331.2 575.467" stroke="#A3828C" stroke-linecap="round"/>
<path d="M0 639.253C43.6915 633.305 87.383 627.357 138.24 629.547C189.097 631.736 247.118 642.063 305.92 642.027C364.722 641.991 424.302 631.593 482.56 630.933C540.818 630.273 597.752 639.352 647.68 644.8C697.608 650.248 740.529 652.065 788.48 651.733C836.431 651.402 889.414 648.924 942.08 647.573C994.746 646.223 1047.09 645.999 1103.36 644.8C1159.63 643.601 1219.81 641.428 1331.2 639.253" stroke="#AC8E97" stroke-linecap="round"/>
<path d="M0 703.04C42.537 703.643 85.0739 704.246 142.08 705.813C199.086 707.38 270.56 709.907 327.68 707.2C384.8 704.493 427.567 696.55 478.72 697.493C529.873 698.436 589.409 708.265 642.56 708.587C695.711 708.908 742.474 699.724 791.04 693.333C839.606 686.942 889.974 683.347 943.36 689.173C996.746 695 1053.15 710.251 1109.76 714.133C1166.37 718.016 1223.18 710.528 1331.2 703.04" stroke="#825562" stroke-linecap="round"/>
<path d="M0 766.827C48.1421 776.436 96.2854 786.046 143.36 783.467C190.435 780.887 236.442 766.117 299.52 764.053C362.598 761.99 442.748 772.631 496.64 776.533C550.532 780.435 578.163 777.598 625.92 775.147C673.677 772.695 741.555 770.63 800 769.6C858.445 768.57 907.452 768.577 961.28 770.987C1015.11 773.397 1073.76 778.213 1127.68 777.92C1181.6 777.627 1230.8 772.228 1331.2 766.827" stroke="#845864" stroke-linecap="round"/>
<path d="M0 830.613C44.3187 832.645 88.6374 834.676 144.64 833.387C200.643 832.097 268.328 827.486 330.24 829.227C392.152 830.967 448.292 839.058 496.64 838.933C544.988 838.809 585.546 830.465 638.72 827.84C691.894 825.215 757.682 828.309 815.36 832C873.038 835.691 922.606 839.98 974.08 838.933C1025.55 837.886 1078.94 831.502 1130.24 829.227C1181.54 826.951 1230.77 828.783 1331.2 830.613" stroke="#956F7A" stroke-linecap="round"/>
</g>
<defs>
<clipPath id="clip0_237_195">
<rect width="1280" height="832" fill="white"/>
</clipPath>
</defs>
</svg>
